<mxfile host="Electron" modified="2023-09-14T05:57:24.704Z" agent="Mozilla/5.0 (Windows NT 10.0; Win64; x64) AppleWebKit/537.36 (KHTML, like Gecko) draw.io/21.6.5 Chrome/114.0.5735.243 Electron/25.3.1 Safari/537.36" etag="GfeZvDmOBkLg34kGFy81" version="21.6.5" type="device">
  <diagram name="Page-1" id="JmDLRrQ7sxYgL3HZ8l8M">
    <mxGraphModel dx="1036" dy="606" grid="1" gridSize="10" guides="1" tooltips="1" connect="1" arrows="1" fold="1" page="1" pageScale="1" pageWidth="827" pageHeight="1169" math="0" shadow="0">
      <root>
        <mxCell id="0" />
        <mxCell id="1" parent="0" />
        <mxCell id="mXzGNmlsU9lUAmX61Gej-1" value="" style="rounded=0;whiteSpace=wrap;html=1;dashed=1;dashPattern=12 12;fillColor=#f9f7ed;strokeColor=#36393d;fontStyle=1" vertex="1" parent="1">
          <mxGeometry x="310" y="41" width="610" height="489" as="geometry" />
        </mxCell>
        <mxCell id="mXzGNmlsU9lUAmX61Gej-2" value="&lt;span&gt;TripDashboard - Service&lt;/span&gt;&lt;br&gt;&lt;br&gt;Build dataset for further consumption&amp;nbsp;" style="rounded=1;whiteSpace=wrap;html=1;fillColor=#dae8fc;strokeColor=#6c8ebf;fontStyle=1" vertex="1" parent="1">
          <mxGeometry x="350" y="90" width="150" height="140" as="geometry" />
        </mxCell>
        <mxCell id="mXzGNmlsU9lUAmX61Gej-3" value="Database" style="shape=datastore;whiteSpace=wrap;html=1;fillColor=#dae8fc;strokeColor=#6c8ebf;fontStyle=1" vertex="1" parent="1">
          <mxGeometry x="375" y="330" width="100" height="97" as="geometry" />
        </mxCell>
        <mxCell id="mXzGNmlsU9lUAmX61Gej-4" value="&lt;span&gt;Service&lt;/span&gt;&lt;br&gt;&lt;br&gt;RESTAPI" style="rounded=1;whiteSpace=wrap;html=1;fillColor=#dae8fc;strokeColor=#6c8ebf;fontStyle=1" vertex="1" parent="1">
          <mxGeometry x="50" y="70" width="150" height="140" as="geometry" />
        </mxCell>
        <mxCell id="mXzGNmlsU9lUAmX61Gej-5" value="Synchronous" style="endArrow=classic;html=1;rounded=0;fontStyle=1" edge="1" parent="1">
          <mxGeometry width="50" height="50" relative="1" as="geometry">
            <mxPoint x="50" y="270" as="sourcePoint" />
            <mxPoint x="200" y="270" as="targetPoint" />
          </mxGeometry>
        </mxCell>
        <mxCell id="mXzGNmlsU9lUAmX61Gej-6" value="Legend" style="text;html=1;strokeColor=none;fillColor=none;align=center;verticalAlign=middle;whiteSpace=wrap;rounded=0;fontStyle=1" vertex="1" parent="1">
          <mxGeometry x="40" y="11" width="60" height="30" as="geometry" />
        </mxCell>
        <mxCell id="mXzGNmlsU9lUAmX61Gej-7" value="" style="endArrow=classic;startArrow=classic;html=1;rounded=0;exitX=0.5;exitY=0;exitDx=0;exitDy=0;entryX=0.5;entryY=1;entryDx=0;entryDy=0;fontStyle=1" edge="1" parent="1" source="mXzGNmlsU9lUAmX61Gej-3" target="mXzGNmlsU9lUAmX61Gej-2">
          <mxGeometry width="50" height="50" relative="1" as="geometry">
            <mxPoint x="375" y="240" as="sourcePoint" />
            <mxPoint x="425" y="190" as="targetPoint" />
          </mxGeometry>
        </mxCell>
        <mxCell id="mXzGNmlsU9lUAmX61Gej-8" value="App - UI" style="rounded=1;whiteSpace=wrap;html=1;fillColor=#fff2cc;strokeColor=#d6b656;gradientColor=#ffd966;fontStyle=1" vertex="1" parent="1">
          <mxGeometry x="680" y="120" width="120" height="60" as="geometry" />
        </mxCell>
        <mxCell id="mXzGNmlsU9lUAmX61Gej-9" value="" style="endArrow=classic;html=1;rounded=0;entryX=-0.027;entryY=0.643;entryDx=0;entryDy=0;exitX=0.311;exitY=0.223;exitDx=0;exitDy=0;exitPerimeter=0;entryPerimeter=0;fontStyle=1" edge="1" parent="1">
          <mxGeometry width="50" height="50" relative="1" as="geometry">
            <mxPoint x="500.00000000000006" y="151.46700000000004" as="sourcePoint" />
            <mxPoint x="677.05" y="150.00000000000006" as="targetPoint" />
            <Array as="points">
              <mxPoint x="610.29" y="150.42000000000002" />
            </Array>
          </mxGeometry>
        </mxCell>
        <mxCell id="mXzGNmlsU9lUAmX61Gej-10" value="Formatted Trip data&amp;nbsp;" style="text;html=1;strokeColor=none;fillColor=none;align=center;verticalAlign=middle;whiteSpace=wrap;rounded=0;fontStyle=1" vertex="1" parent="1">
          <mxGeometry x="520" y="120" width="120" height="30" as="geometry" />
        </mxCell>
      </root>
    </mxGraphModel>
  </diagram>
</mxfile>
